# xmcd
#
# Track frame offsets:
#	150
#	14842
#	29314
#	45126
#	59391
#	77195
#	90585
#	109744
#	126374
#	143261
#	160050
#
# Disc length: 2273 seconds
#
# Revision: 0
# Processed by: cddbd v1.5.1PL0 Copyright (c) Steve Scherf et al.
# Submitted via: audiograbber 1.83.01
#
DISCID=8308df0b
DTITLE=McCoy, Neal - Life Of The Party, The - McCoy, Neal - Life Of The Party, 
DTITLE=The
DYEAR=1999
DGENRE=Country
TTITLE0=I Was
TTITLE1=Lipstick On The Radio
TTITLE2=Only You
TTITLE3=The Girls Of Summer
TTITLE4=New Old Songs
TTITLE5=The Life Of The Party
TTITLE6=Completely
TTITLE7=That's Not Her
TTITLE8=Ain't Nothin' Like It
TTITLE9=The Strongest Man In The World
TTITLE10=Straighten Up And Fly Right
EXTD=
EXTT0=
EXTT1=
EXTT2=
EXTT3=
EXTT4=
EXTT5=
EXTT6=
EXTT7=
EXTT8=
EXTT9=
EXTT10=
PLAYORDER=
